<svg xmlns="http://www.w3.org/2000/svg" xmlns:xlink="http://www.w3.org/1999/xlink" contentStyleType="text/css" data-diagram-type="SEQUENCE" height="703px" preserveAspectRatio="none" style="width:849px;height:703px;" version="1.1" viewBox="0 0 849 703" width="849px" zoomAndPan="magnify"><?plantuml 1.2026.6?><defs/><g><g class="title" data-source-line="1"><text fill="#000000" font-family="sans-serif" font-size="14" font-weight="700" lengthAdjust="spacing" textLength="284.1429" x="279.3658" y="29.9659">Autentica&#231;&#227;o e permiss&#227;o por requisi&#231;&#227;o</text></g><rect fill="none" height="198.924" style="stroke:#000000;stroke-width:1.5;" width="823.8744" x="10" y="127.1358"/><rect fill="none" height="212.924" style="stroke:#000000;stroke-width:1.5;" width="823.8744" x="10" y="402.4719"/><g class="participant-lifeline" data-entity-uid="part1" data-qualified-name="Cliente" data-source-line="6" id="part1-lifeline"><g><title>Cliente</title><rect fill="#000000" fill-opacity="0.00000" height="522.26" width="8" x="45.7849" y="110.1358"/><line style="stroke:#181818;stroke-width:0.5;stroke-dasharray:5,5;" x1="49" x2="49" y1="110.1358" y2="632.3959"/></g></g><g class="participant-lifeline" data-entity-uid="part2" data-qualified-name="Guard" data-source-line="7" id="part2-lifeline"><g><title>Guard de contexto</title><rect fill="#000000" fill-opacity="0.00000" height="522.26" width="8" x="268.0221" y="110.1358"/><line style="stroke:#181818;stroke-width:0.5;stroke-dasharray:5,5;" x1="271.7233" x2="271.7233" y1="110.1358" y2="632.3959"/></g></g><g class="participant-lifeline" data-entity-uid="part3" data-qualified-name="Svc" data-source-line="8" id="part3-lifeline"><g><title>Servi.o de dom.nio</title><rect fill="#000000" fill-opacity="0.00000" height="522.26" width="8" x="538.0963" y="110.1358"/><line style="stroke:#181818;stroke-width:0.5;stroke-dasharray:5,5;" x1="541.3065" x2="541.3065" y1="110.1358" y2="632.3959"/></g></g><g class="participant-lifeline" data-entity-uid="part4" data-qualified-name="DB" data-source-line="9" id="part4-lifeline"><g><title>MySQL</title><rect fill="#000000" fill-opacity="0.00000" height="522.26" width="8" x="793.9775" y="110.1358"/><line style="stroke:#181818;stroke-width:0.5;stroke-dasharray:5,5;" x1="797.0806" x2="797.0806" y1="110.1358" y2="632.3959"/></g></g><g class="participant participant-head" data-entity-uid="part1" data-qualified-name="Cliente" data-source-line="6" id="part1-head"><rect fill="#E2E2F0" height="33.0679" rx="2.5" ry="2.5" style="stroke:#181818;stroke-width:0.5;" width="59.5698" x="20" y="76.0679"/><text fill="#000000" font-family="sans-serif" font-size="14" lengthAdjust="spacing" textLength="45.5698" x="27" y="98.0339">Cliente</text></g><g class="participant participant-tail" data-entity-uid="part1" data-qualified-name="Cliente" data-source-line="6" id="part1-tail"><rect fill="#E2E2F0" height="33.0679" rx="2.5" ry="2.5" style="stroke:#181818;stroke-width:0.5;" width="59.5698" x="20" y="631.3959"/><text fill="#000000" font-family="sans-serif" font-size="14" lengthAdjust="spacing" textLength="45.5698" x="27" y="653.3618">Cliente</text></g><g class="participant participant-head" data-entity-uid="part2" data-qualified-name="Guard" data-source-line="7" id="part2-head"><rect fill="#E2E2F0" height="33.0679" rx="2.5" ry="2.5" style="stroke:#181818;stroke-width:0.5;" width="136.5975" x="203.7233" y="76.0679"/><text fill="#000000" font-family="sans-serif" font-size="14" lengthAdjust="spacing" textLength="122.5975" x="210.7233" y="98.0339">Guard de contexto</text></g><g class="participant participant-tail" data-entity-uid="part2" data-qualified-name="Guard" data-source-line="7" id="part2-tail"><rect fill="#E2E2F0" height="33.0679" rx="2.5" ry="2.5" style="stroke:#181818;stroke-width:0.5;" width="136.5975" x="203.7233" y="631.3959"/><text fill="#000000" font-family="sans-serif" font-size="14" lengthAdjust="spacing" textLength="122.5975" x="210.7233" y="653.3618">Guard de contexto</text></g><g class="participant participant-head" data-entity-uid="part3" data-qualified-name="Svc" data-source-line="8" id="part3-head"><rect fill="#E2E2F0" height="33.0679" rx="2.5" ry="2.5" style="stroke:#181818;stroke-width:0.5;" width="139.5795" x="472.3065" y="76.0679"/><text fill="#000000" font-family="sans-serif" font-size="14" lengthAdjust="spacing" textLength="125.5795" x="479.3065" y="98.0339">Servi&#231;o de dom&#237;nio</text></g><g class="participant participant-tail" data-entity-uid="part3" data-qualified-name="Svc" data-source-line="8" id="part3-tail"><rect fill="#E2E2F0" height="33.0679" rx="2.5" ry="2.5" style="stroke:#181818;stroke-width:0.5;" width="139.5795" x="472.3065" y="631.3959"/><text fill="#000000" font-family="sans-serif" font-size="14" lengthAdjust="spacing" textLength="125.5795" x="479.3065" y="653.3618">Servi&#231;o de dom&#237;nio</text></g><g class="participant participant-head" data-entity-uid="part4" data-qualified-name="DB" data-source-line="9" id="part4-head"><text fill="#000000" font-family="sans-serif" font-size="14" lengthAdjust="spacing" textLength="45.7938" x="772.0806" y="106.0339">MySQL</text><path d="M779.9775,55.0679 C779.9775,45.0679 797.9775,45.0679 797.9775,45.0679 C797.9775,45.0679 815.9775,45.0679 815.9775,55.0679 L815.9775,81.0679 C815.9775,91.0679 797.9775,91.0679 797.9775,91.0679 C797.9775,91.0679 779.9775,91.0679 779.9775,81.0679 L779.9775,55.0679" fill="#E2E2F0" style="stroke:#181818;stroke-width:0.5;"/><path d="M779.9775,55.0679 C779.9775,65.0679 797.9775,65.0679 797.9775,65.0679 C797.9775,65.0679 815.9775,65.0679 815.9775,55.0679" fill="none" style="stroke:#181818;stroke-width:0.5;"/></g><g class="participant participant-tail" data-entity-uid="part4" data-qualified-name="DB" data-source-line="9" id="part4-tail"><text fill="#000000" font-family="sans-serif" font-size="14" lengthAdjust="spacing" textLength="45.7938" x="772.0806" y="646.3618">MySQL</text><path d="M779.9775,660.4638 C779.9775,650.4638 797.9775,650.4638 797.9775,650.4638 C797.9775,650.4638 815.9775,650.4638 815.9775,660.4638 L815.9775,686.4638 C815.9775,696.4638 797.9775,696.4638 797.9775,696.4638 C797.9775,696.4638 779.9775,696.4638 779.9775,686.4638 L779.9775,660.4638" fill="#E2E2F0" style="stroke:#181818;stroke-width:0.5;"/><path d="M779.9775,660.4638 C779.9775,670.4638 797.9775,670.4638 797.9775,670.4638 C797.9775,670.4638 815.9775,670.4638 815.9775,660.4638" fill="none" style="stroke:#181818;stroke-width:0.5;"/></g><path d="M10,127.1358 L72.303,127.1358 L72.303,136.8419 L62.303,146.8419 L10,146.8419 L10,127.1358" fill="#EEEEEE" style="stroke:#000000;stroke-width:1.5;"/><rect fill="none" height="198.924" style="stroke:#000000;stroke-width:1.5;" width="823.8744" x="10" y="127.1358"/><text fill="#000000" font-family="sans-serif" font-size="13" font-weight="700" lengthAdjust="spacing" textLength="17.303" x="25" y="142.0328">alt</text><text fill="#000000" font-family="sans-serif" font-size="11" font-weight="700" lengthAdjust="spacing" textLength="85.1284" x="87.303" y="140.8947">[Humano (JWT)]</text><g class="message" data-entity-1="part1" data-entity-2="part2" data-source-line="12" id="msg1"><polygon fill="#181818" points="260.0221,184.2539,270.0221,188.2539,260.0221,192.2539,264.0221,188.2539" style="stroke:#181818;stroke-width:1;stroke-linejoin:miter;stroke-miterlimit:10;"/><line style="stroke:#181818;stroke-width:1;" x1="49.7849" x2="266.0221" y1="188.2539" y2="188.2539"/><text fill="#000000" font-family="sans-serif" font-size="13" lengthAdjust="spacing" textLength="167.5311" x="56.7849" y="164.7389">Authorization: Bearer &lt;jwt&gt;</text><text fill="#000000" font-family="sans-serif" font-size="13" lengthAdjust="spacing" textLength="97.3961" x="56.7849" y="182.4449">+ X-Company-Id</text></g><g class="message" data-entity-1="part2" data-entity-2="part4" data-source-line="13" id="msg2"><polygon fill="#181818" points="785.9775,215.9599,795.9775,219.9599,785.9775,223.9599,789.9775,219.9599" style="stroke:#181818;stroke-width:1;stroke-linejoin:miter;stroke-miterlimit:10;"/><line style="stroke:#181818;stroke-width:1;" x1="272.0221" x2="791.9775" y1="219.9599" y2="219.9599"/><text fill="#000000" font-family="sans-serif" font-size="13" lengthAdjust="spacing" textLength="236.4052" x="279.0221" y="214.1509">carrega Membership (user + company)</text></g><line style="stroke:#000000;stroke-width:1;stroke-dasharray:2,2;" x1="10" x2="833.8744" y1="228.9599" y2="228.9599"/><text fill="#000000" font-family="sans-serif" font-size="11" font-weight="700" lengthAdjust="spacing" textLength="98.4713" x="15" y="240.7188">[Agente (API key)]</text><g class="message" data-entity-1="part1" data-entity-2="part2" data-source-line="15" id="msg3"><polygon fill="#181818" points="260.0221,264.6478,270.0221,268.6478,260.0221,272.6478,264.0221,268.6478" style="stroke:#181818;stroke-width:1;stroke-linejoin:miter;stroke-miterlimit:10;"/><line style="stroke:#181818;stroke-width:1;" x1="49.7849" x2="266.0221" y1="268.6478" y2="268.6478"/><text fill="#000000" font-family="sans-serif" font-size="13" lengthAdjust="spacing" textLength="105.3261" x="56.7849" y="262.8388">x-api-key: adm_...</text></g><g class="message" data-entity-1="part2" data-entity-2="part4" data-source-line="16" id="msg4"><polygon fill="#181818" points="785.9775,314.0598,795.9775,318.0598,785.9775,322.0598,789.9775,318.0598" style="stroke:#181818;stroke-width:1;stroke-linejoin:miter;stroke-miterlimit:10;"/><line style="stroke:#181818;stroke-width:1;" x1="272.0221" x2="791.9775" y1="318.0598" y2="318.0598"/><text fill="#000000" font-family="sans-serif" font-size="13" lengthAdjust="spacing" textLength="138.4111" x="279.0221" y="294.5448">busca ApiKey por hash</text><text fill="#000000" font-family="sans-serif" font-size="13" lengthAdjust="spacing" textLength="240.0322" x="279.0221" y="312.2508">-&gt; Membership (+ scopes p/ uso futuro)</text></g><g class="message" data-entity-1="part2" data-entity-2="part2" data-source-line="19" id="msg5"><line style="stroke:#181818;stroke-width:1;" x1="272.0221" x2="314.0221" y1="374.4719" y2="374.4719"/><line style="stroke:#181818;stroke-width:1;" x1="314.0221" x2="314.0221" y1="374.4719" y2="387.4719"/><line style="stroke:#181818;stroke-width:1;" x1="273.0221" x2="314.0221" y1="387.4719" y2="387.4719"/><polygon fill="#181818" points="283.0221,383.4719,273.0221,387.4719,283.0221,391.4719,279.0221,387.4719" style="stroke:#181818;stroke-width:1;stroke-linejoin:miter;stroke-miterlimit:10;"/><text fill="#000000" font-family="sans-serif" font-size="13" lengthAdjust="spacing" textLength="256.0742" x="279.0221" y="350.9569">permiss&#227;o efetiva = papel da Membership</text><text fill="#000000" font-family="sans-serif" font-size="13" lengthAdjust="spacing" textLength="253.9292" x="279.0221" y="368.6629">(scopes da chave: refinamento planejado)</text></g><path d="M10,402.4719 L72.303,402.4719 L72.303,412.1779 L62.303,422.1779 L10,422.1779 L10,402.4719" fill="#EEEEEE" style="stroke:#000000;stroke-width:1.5;"/><rect fill="none" height="212.924" style="stroke:#000000;stroke-width:1.5;" width="823.8744" x="10" y="402.4719"/><text fill="#000000" font-family="sans-serif" font-size="13" font-weight="700" lengthAdjust="spacing" textLength="17.303" x="25" y="417.3689">alt</text><text fill="#000000" font-family="sans-serif" font-size="11" font-weight="700" lengthAdjust="spacing" textLength="61.6216" x="87.303" y="416.2308">[permitido]</text><g class="message" data-entity-1="part2" data-entity-2="part3" data-source-line="22" id="msg6"><polygon fill="#181818" points="530.0963,441.8839,540.0963,445.8839,530.0963,449.8839,534.0963,445.8839" style="stroke:#181818;stroke-width:1;stroke-linejoin:miter;stroke-miterlimit:10;"/><line style="stroke:#181818;stroke-width:1;" x1="272.0221" x2="536.0963" y1="445.8839" y2="445.8839"/><text fill="#000000" font-family="sans-serif" font-size="13" lengthAdjust="spacing" textLength="192.9722" x="279.0221" y="440.0749">segue (companyId no contexto)</text></g><g class="message" data-entity-1="part3" data-entity-2="part4" data-source-line="23" id="msg7"><polygon fill="#181818" points="785.9775,473.5899,795.9775,477.5899,785.9775,481.5899,789.9775,477.5899" style="stroke:#181818;stroke-width:1;stroke-linejoin:miter;stroke-miterlimit:10;"/><line style="stroke:#181818;stroke-width:1;" x1="542.0963" x2="791.9775" y1="477.5899" y2="477.5899"/><text fill="#000000" font-family="sans-serif" font-size="13" lengthAdjust="spacing" textLength="231.8812" x="549.0963" y="471.7809">query SEMPRE filtrada por companyId</text></g><g class="message" data-entity-1="part3" data-entity-2="part4" data-source-line="24" id="msg8"><polygon fill="#181818" points="785.9775,523.002,795.9775,527.002,785.9775,531.002,789.9775,527.002" style="stroke:#181818;stroke-width:1;stroke-linejoin:miter;stroke-miterlimit:10;"/><line style="stroke:#181818;stroke-width:1;" x1="542.0963" x2="791.9775" y1="527.002" y2="527.002"/><text fill="#000000" font-family="sans-serif" font-size="13" lengthAdjust="spacing" textLength="104.4811" x="549.0963" y="503.4869">grava ActivityLog</text><text fill="#000000" font-family="sans-serif" font-size="13" lengthAdjust="spacing" textLength="111.7741" x="549.0963" y="521.1929">(ator + viaApiKey?)</text></g><g class="message" data-entity-1="part3" data-entity-2="part1" data-source-line="25" id="msg9"><polygon fill="#181818" points="60.7849,554.708,50.7849,558.708,60.7849,562.708,56.7849,558.708" style="stroke:#181818;stroke-width:1;stroke-linejoin:miter;stroke-miterlimit:10;"/><line style="stroke:#181818;stroke-width:1;stroke-dasharray:2,2;" x1="54.7849" x2="541.0963" y1="558.708" y2="558.708"/><text fill="#000000" font-family="sans-serif" font-size="13" lengthAdjust="spacing" textLength="21.19" x="66.7849" y="552.899">2xx</text></g><line style="stroke:#000000;stroke-width:1;stroke-dasharray:2,2;" x1="10" x2="833.8744" y1="567.708" y2="567.708"/><text fill="#000000" font-family="sans-serif" font-size="11" font-weight="700" lengthAdjust="spacing" textLength="48.3667" x="15" y="579.4669">[negado]</text><g class="message" data-entity-1="part2" data-entity-2="part1" data-source-line="27" id="msg10"><polygon fill="#181818" points="60.7849,603.3959,50.7849,607.3959,60.7849,611.3959,56.7849,607.3959" style="stroke:#181818;stroke-width:1;stroke-linejoin:miter;stroke-miterlimit:10;"/><line style="stroke:#181818;stroke-width:1;stroke-dasharray:2,2;" x1="54.7849" x2="271.0221" y1="607.3959" y2="607.3959"/><text fill="#000000" font-family="sans-serif" font-size="13" lengthAdjust="spacing" textLength="198.2372" x="66.7849" y="601.5869">403 &#8212; papel/escopo insuficiente</text></g><?plantuml-src TL9BZjD04Dtx5AMi4aN9860LmQ0aCq1W1Wq42HQHKCLTjcjYTtlwaubPSGXkm88LfyXDE0bbUn8v89RTzLxLUw_Aiyy9fi6JzXpZ_kV-Xm62acp1pjMFqbYmT1VOSLEDt8PrYHOBM6EyIQq9MirDBZ1lKJifIQyEocMep3th51BC7NKgYX8CkNzfj7-71O4J-iYHvIIA1262k4JjOPwpjAIJlzwhW5P92uY5JZjlUe0EcjzJu9BiLgIR6gjCiV-bkSKkjt6aqECQ7K7lkbg-lsh-BsPHXBc7rw50RQ3_vjF7GGG75J0wRwV0fCujCvQ_ecUZ9p0ZyMxXsUszFr_f8NmUpKqX8ghHGac3bYNqYvbmOxIMKeHhAjPaNSObz8EOXw4uQbY3Y2GlcARDsFxqPW4RgluZPJV2aaTIdm2guijuFFvduZgu665QybkgchLcwBALbd9Nmn1SR4foK9v1S0QIu8CreaMhA3esF8pj70ebv7cBy1nAB2a7rVMsqls7jl8TPxYbYLnLmbhshhrSMOwQRkLG1ctsJL_FodHToC9afACqI1mF8IqKo8uEDr27KwCEbky2sGgMbzSt7ouXuLmkLERNte_qlnYfHV4mZSKA--hAfA8SlQdNicLimtjn72Eimoucy7YtQpUcPQzTvIUefu-UmEzltzkGpgXEnG1h5nAvsERC9Ua_?></g></svg>