<svg xmlns="http://www.w3.org/2000/svg" xmlns:xlink="http://www.w3.org/1999/xlink" contentStyleType="text/css" data-diagram-type="STATE" height="814px" preserveAspectRatio="none" style="width:423px;height:814px;" version="1.1" viewBox="0 0 423 814" width="423px" zoomAndPan="magnify"><?plantuml 1.2026.6?><defs/><g><g class="title" data-source-line="1"><text fill="#000000" font-family="sans-serif" font-size="14" font-weight="700" lengthAdjust="spacing" textLength="396.7864" x="10" y="24.9659">Estados de uma tarefa no quadro (colunas configur&#225;veis)</text></g><g class="entity" data-qualified-name="B" data-source-line="6" id="ent0001"><rect fill="#F1F1F1" height="50" rx="12.5" ry="12.5" style="stroke:#181818;stroke-width:0.5;" width="71.8418" x="123.8516" y="127.0679"/><line style="stroke:#181818;stroke-width:0.5;" x1="123.8516" x2="195.6934" y1="156.1358" y2="156.1358"/><text fill="#000000" font-family="sans-serif" font-size="14" lengthAdjust="spacing" textLength="51.8418" x="133.8516" y="147.0339">Backlog</text></g><g class="entity" data-qualified-name="TODO" data-source-line="7" id="ent0002"><rect fill="#F1F1F1" height="50" rx="12.5" ry="12.5" style="stroke:#181818;stroke-width:0.5;" width="65.5138" x="127.0216" y="256.0679"/><line style="stroke:#181818;stroke-width:0.5;" x1="127.0216" x2="192.5354" y1="285.1358" y2="285.1358"/><text fill="#000000" font-family="sans-serif" font-size="14" lengthAdjust="spacing" textLength="45.5138" x="137.0216" y="276.0339">A fazer</text></g><g class="entity" data-qualified-name="DOING" data-source-line="8" id="ent0003"><rect fill="#F1F1F1" height="50" rx="12.5" ry="12.5" style="stroke:#181818;stroke-width:0.5;" width="75.3278" x="122.1116" y="385.0679"/><line style="stroke:#181818;stroke-width:0.5;" x1="122.1116" x2="197.4394" y1="414.1358" y2="414.1358"/><text fill="#000000" font-family="sans-serif" font-size="14" lengthAdjust="spacing" textLength="55.3278" x="132.1116" y="405.0339">Fazendo</text></g><g class="entity" data-qualified-name="REV" data-source-line="9" id="ent0004"><rect fill="#F1F1F1" height="50" rx="12.5" ry="12.5" style="stroke:#181818;stroke-width:0.5;" width="70.3578" x="124.6016" y="514.0679"/><line style="stroke:#181818;stroke-width:0.5;" x1="124.6016" x2="194.9594" y1="543.1358" y2="543.1358"/><text fill="#000000" font-family="sans-serif" font-size="14" lengthAdjust="spacing" textLength="50.3578" x="134.6016" y="534.0339">Revis&#227;o</text></g><g class="entity" data-qualified-name="DONE" data-source-line="10" id="ent0005"><rect fill="#F1F1F1" height="50" rx="12.5" ry="12.5" style="stroke:#181818;stroke-width:0.5;" width="85.6457" x="116.9516" y="643.0679"/><line style="stroke:#181818;stroke-width:0.5;" x1="116.9516" x2="202.5973" y1="672.1358" y2="672.1358"/><text fill="#000000" font-family="sans-serif" font-size="14" lengthAdjust="spacing" textLength="65.6457" x="126.9516" y="663.0339">Conclu&#237;do</text></g><g class="start_entity" data-qualified-name=".start." data-source-line="12" id="ent0006"><ellipse cx="159.7716" cy="56.0679" fill="#222222" rx="10" ry="10" style="stroke:#222222;stroke-width:1;"/></g><g class="end_entity" data-qualified-name=".end." data-source-line="18" id="ent0013"><ellipse cx="68.7716" cy="776.7679" fill="none" rx="11" ry="11" style="stroke:#222222;stroke-width:1;"/><ellipse cx="68.7716" cy="776.7679" fill="#222222" rx="6" ry="6" style="stroke:#222222;stroke-width:1;"/></g><g class="entity" data-qualified-name="GMN15" data-source-line="21" id="ent0016"><path d="M114.6216,754.0679 L114.6216,799.4799 A0,0 0 0 0 114.6216,799.4799 L386.9248,799.4799 A0,0 0 0 0 386.9248,799.4799 L386.9248,764.0679 L376.9248,754.0679 L235.8516,754.0679 L180.6516,693.5479 L227.8516,754.0679 L114.6216,754.0679 A0,0 0 0 0 114.6216,754.0679" fill="#FEFFDD" style="stroke:#181818;stroke-width:0.5;"/><path d="M376.9248,754.0679 L376.9248,764.0679 L386.9248,764.0679 L376.9248,754.0679" fill="#FEFFDD" style="stroke:#181818;stroke-width:0.5;"/><text fill="#000000" font-family="sans-serif" font-size="13" lengthAdjust="spacing" textLength="251.3032" x="120.6216" y="772.9649">As colunas s&#227;o configur&#225;veis por quadro;</text><text fill="#000000" font-family="sans-serif" font-size="13" lengthAdjust="spacing" textLength="189.7482" x="120.6216" y="790.6709">este &#233; o fluxo padr&#227;o sugerido.</text></g><!--link *start* to B--><g class="link" data-entity-1="ent0006" data-entity-2="ent0001" data-link-type="dependency" data-source-line="12" id="lnk7"><path d="M159.7716,66.4179 C159.7716,80.3579 159.7716,102.0179 159.7716,121.7179" fill="none" id="*start*-to-B" style="stroke:#181818;stroke-width:1;"/><polygon fill="#181818" points="159.7716,126.7179,163.7716,117.7179,159.7716,121.7179,155.7716,117.7179,159.7716,126.7179" style="stroke:#181818;stroke-width:1;stroke-linejoin:miter;stroke-miterlimit:10;"/></g><!--link B to TODO--><g class="link" data-entity-1="ent0001" data-entity-2="ent0002" data-link-type="dependency" data-source-line="13" id="lnk8"><path d="M159.7716,177.5479 C159.7716,200.0379 159.7716,228.1879 159.7716,250.6579" fill="none" id="B-to-TODO" style="stroke:#181818;stroke-width:1;"/><polygon fill="#181818" points="159.7716,255.6579,163.7716,246.6579,159.7716,250.6579,155.7716,246.6579,159.7716,255.6579" style="stroke:#181818;stroke-width:1;stroke-linejoin:miter;stroke-miterlimit:10;"/><text fill="#000000" font-family="sans-serif" font-size="13" lengthAdjust="spacing" textLength="61.997" x="160.7716" y="221.9649">priorizada</text></g><!--link TODO to DOING--><g class="link" data-entity-1="ent0002" data-entity-2="ent0003" data-link-type="dependency" data-source-line="14" id="lnk9"><path d="M159.7716,306.5479 C159.7716,329.0379 159.7716,357.1879 159.7716,379.6579" fill="none" id="TODO-to-DOING" style="stroke:#181818;stroke-width:1;"/><polygon fill="#181818" points="159.7716,384.6579,163.7716,375.6579,159.7716,379.6579,155.7716,375.6579,159.7716,384.6579" style="stroke:#181818;stroke-width:1;stroke-linejoin:miter;stroke-miterlimit:10;"/><text fill="#000000" font-family="sans-serif" font-size="13" lengthAdjust="spacing" textLength="120.0941" x="160.7716" y="350.9649">agente/dev assume</text></g><!--link DOING to REV--><g class="link" data-entity-1="ent0003" data-entity-2="ent0004" data-link-type="dependency" data-source-line="15" id="lnk10"><path d="M121.8616,418.6079 C96.3916,425.8679 64.6916,439.6279 48.7716,465.0679 C27.8616,498.5079 79.5763,518.5654 119.4363,529.0554" fill="none" id="DOING-to-REV" style="stroke:#181818;stroke-width:1;"/><polygon fill="#181818" points="124.2716,530.3279,116.586,524.1691,119.4363,529.0554,114.5499,531.9057,124.2716,530.3279" style="stroke:#181818;stroke-width:1;stroke-linejoin:miter;stroke-miterlimit:10;"/><text fill="#000000" font-family="sans-serif" font-size="13" lengthAdjust="spacing" textLength="174.4341" x="49.7716" y="479.9649">PR aberto / pronto p/ revisar</text></g><!--link REV to DOING--><g class="link" data-entity-1="ent0004" data-entity-2="ent0003" data-link-type="dependency" data-source-line="16" id="lnk11"><path d="M195.0916,520.7779 C217.2016,507.3579 239.6216,487.3279 228.7716,465.0679 C222.0416,451.2579 213.9771,442.8204 201.7171,434.1704" fill="none" id="REV-to-DOING" style="stroke:#181818;stroke-width:1;"/><polygon fill="#181818" points="197.6316,431.2879,202.6795,439.7448,201.7171,434.1704,207.2915,433.208,197.6316,431.2879" style="stroke:#181818;stroke-width:1;stroke-linejoin:miter;stroke-miterlimit:10;"/><text fill="#000000" font-family="sans-serif" font-size="13" lengthAdjust="spacing" textLength="95.3031" x="232.5916" y="479.9649">ajustes pedidos</text></g><!--link REV to DONE--><g class="link" data-entity-1="ent0004" data-entity-2="ent0005" data-link-type="dependency" data-source-line="17" id="lnk12"><path d="M159.7716,564.5479 C159.7716,587.0379 159.7716,615.1879 159.7716,637.6579" fill="none" id="REV-to-DONE" style="stroke:#181818;stroke-width:1;"/><polygon fill="#181818" points="159.7716,642.6579,163.7716,633.6579,159.7716,637.6579,155.7716,633.6579,159.7716,642.6579" style="stroke:#181818;stroke-width:1;stroke-linejoin:miter;stroke-miterlimit:10;"/><text fill="#000000" font-family="sans-serif" font-size="13" lengthAdjust="spacing" textLength="58.279" x="160.7716" y="608.9649">aprovado</text></g><!--link DONE to *end*--><g class="link" data-entity-1="ent0005" data-entity-2="ent0013" data-link-type="dependency" data-source-line="18" id="lnk14"><path d="M138.9016,693.5479 C118.5416,717.4179 92.0165,748.5239 78.7865,764.0339" fill="none" id="DONE-to-*end*" style="stroke:#181818;stroke-width:1;"/><polygon fill="#181818" points="75.5416,767.8379,84.4256,763.5865,78.7865,764.0339,78.3391,758.3947,75.5416,767.8379" style="stroke:#181818;stroke-width:1;stroke-linejoin:miter;stroke-miterlimit:10;"/></g><?plantuml-src NP5DJiD038NtSmghAq0gtOE4rD8KiKbHXTWW5cx72KEJSPYVW7eRn8e5fyZ5y2GAAgoYlC_ZP_i54og2p0VKx44Jn1eXeAC2mJAyHjIEuMJ7LRJeOSUsC6LqtKTBnfyglpUsGOSrR76tBnr7gw-vOWV1eVM2o8QZAlyiFc_6bb1WvUc8Q76CLLYn3JdM15wUJpqvKoWbqmM2oK8iAYud88CiHd4kdGxaUl5-lLoF-afKgxdNb-lR_6O46sgDxpu7iiaUHlsQxQwAtVVlcpnJwl7i2QRJAx5RzD_a01VGECFE752ZwfM4UXDXMChADDFKIXiVQr83IJLY9nLt6y0jkS0maqwoC4Cp0vVcGgTIpPz-Bz47yj2GDfBH4S-pXAL3AqTL_Ny2ChDIbcMdBOV0DN0nR0CmJmaEIQOJ_8iJ6ibjIFnIYabieVi2XgAAxpAZWFJ8nr9YqNokvC2GZ7u0?></g></svg>