<svg xmlns="http://www.w3.org/2000/svg" xmlns:xlink="http://www.w3.org/1999/xlink" contentStyleType="text/css" data-diagram-type="ACTIVITY" height="600px" preserveAspectRatio="none" style="width:588px;height:600px;" version="1.1" viewBox="0 0 588 600" width="588px" zoomAndPan="magnify"><?plantuml 1.2026.6?><defs/><g><g class="title" data-source-line="1"><text fill="#000000" font-family="sans-serif" font-size="14" font-weight="700" lengthAdjust="spacing" textLength="264.641" x="160.8431" y="34.9659">Maestro Loop &#8212; do briefing &#224; entrega</text></g><ellipse cx="164.493" cy="65.0679" fill="#222222" rx="10" ry="10" style="stroke:#222222;stroke-width:1;"/><rect fill="#F1F1F1" height="36.3441" rx="12.5" ry="12.5" style="stroke:#181818;stroke-width:0.5;" width="277.0419" x="25.9721" y="139.0679"/><text fill="#000000" font-family="sans-serif" font-size="12" lengthAdjust="spacing" textLength="257.0419" x="35.9721" y="161.896">1. Briefing &#8212; descri&#231;&#227;o crua da tarefa/projeto</text><path d="M332.074,190.8781 L332.074,209.5841 L312.074,213.5841 L332.074,217.5841 L332.074,236.2901 A0,0 0 0 0 332.074,236.2901 L541.3271,236.2901 A0,0 0 0 0 541.3271,236.2901 L541.3271,200.8781 L531.3271,190.8781 L332.074,190.8781 A0,0 0 0 0 332.074,190.8781" fill="#FEFFDD" style="stroke:#181818;stroke-width:0.5;"/><path d="M531.3271,190.8781 L531.3271,200.8781 L541.3271,200.8781 L531.3271,190.8781" fill="#FEFFDD" style="stroke:#181818;stroke-width:0.5;"/><text fill="#000000" font-family="sans-serif" font-size="13" lengthAdjust="spacing" textLength="163.3972" x="338.074" y="209.7751">objetivo, escopo, contexto,</text><text fill="#000000" font-family="sans-serif" font-size="13" lengthAdjust="spacing" textLength="188.2532" x="338.074" y="227.4811">crit&#233;rios de aceite, riscos, dicas</text><rect fill="#F1F1F1" height="36.3441" rx="12.5" ry="12.5" style="stroke:#181818;stroke-width:0.5;" width="295.1619" x="16.912" y="195.412"/><text fill="#000000" font-family="sans-serif" font-size="12" lengthAdjust="spacing" textLength="275.1619" x="26.912" y="218.2401">2. Refino &#8212; agente gera a doc estruturada (spec)</text><path d="M332.986,251.7561 L332.986,270.4622 L312.986,274.4622 L332.986,278.4622 L332.986,297.1682 A0,0 0 0 0 332.986,297.1682 L517.0842,297.1682 A0,0 0 0 0 517.0842,297.1682 L517.0842,261.7561 L507.0842,251.7561 L332.986,251.7561 A0,0 0 0 0 332.986,251.7561" fill="#FEFFDD" style="stroke:#181818;stroke-width:0.5;"/><path d="M507.0842,251.7561 L507.0842,261.7561 L517.0842,261.7561 L507.0842,251.7561" fill="#FEFFDD" style="stroke:#181818;stroke-width:0.5;"/><text fill="#000000" font-family="sans-serif" font-size="13" lengthAdjust="spacing" textLength="163.0981" x="338.986" y="270.6532">estimativa em homem-dia,</text><text fill="#000000" font-family="sans-serif" font-size="13" lengthAdjust="spacing" textLength="125.4631" x="338.986" y="288.3592">depend&#234;ncias e tags</text><rect fill="#F1F1F1" height="36.3441" rx="12.5" ry="12.5" style="stroke:#181818;stroke-width:0.5;" width="296.986" x="16" y="256.2901"/><text fill="#000000" font-family="sans-serif" font-size="12" lengthAdjust="spacing" textLength="276.986" x="26" y="279.1182">3. Decompose &#8212; agente cria tarefas + subtarefas</text><rect fill="#F1F1F1" height="36.3441" rx="12.5" ry="12.5" style="stroke:#181818;stroke-width:0.5;" width="241.4976" x="43.7442" y="332.1682"/><text fill="#000000" font-family="sans-serif" font-size="12" lengthAdjust="spacing" textLength="221.4976" x="53.7442" y="354.9963">4. Quadro &#8212; tarefas entram no kanban</text><rect fill="#F1F1F1" height="36.3441" rx="12.5" ry="12.5" style="stroke:#181818;stroke-width:0.5;" width="250.5336" x="39.2262" y="388.5123"/><text fill="#000000" font-family="sans-serif" font-size="12" lengthAdjust="spacing" textLength="230.5336" x="49.2262" y="411.3404">5. Execu&#231;&#227;o &#8212; agente/dev move o status</text><rect fill="#F1F1F1" height="36.3441" rx="12.5" ry="12.5" style="stroke:#181818;stroke-width:0.5;" width="223.0654" x="52.9603" y="444.8564"/><text fill="#000000" font-family="sans-serif" font-size="12" lengthAdjust="spacing" textLength="203.0654" x="62.9603" y="467.6845">6. Vis&#227;o &#8212; time acompanha e revisa</text><polygon fill="#F1F1F1" points="164.493,95.0679,176.493,107.0679,164.493,119.0679,152.493,107.0679,164.493,95.0679" style="stroke:#181818;stroke-width:0.5;stroke-linejoin:miter;stroke-miterlimit:10;"/><polygon fill="#F1F1F1" points="105.1924,501.2005,223.7936,501.2005,235.7936,513.2005,223.7936,525.2005,105.1924,525.2005,93.1924,513.2005,105.1924,501.2005" style="stroke:#181818;stroke-width:0.5;stroke-linejoin:miter;stroke-miterlimit:10;"/><text fill="#000000" font-family="sans-serif" font-size="11" lengthAdjust="spacing" textLength="19.6239" x="168.493" y="536.9594">n&#227;o</text><text fill="#000000" font-family="sans-serif" font-size="11" lengthAdjust="spacing" textLength="118.6012" x="105.1924" y="517.4685">chegou novo trabalho?</text><text fill="#000000" font-family="sans-serif" font-size="11" lengthAdjust="spacing" textLength="18.3919" x="235.7936" y="509.9775">sim</text><ellipse cx="164.493" cy="569.4594" fill="none" rx="11" ry="11" style="stroke:#222222;stroke-width:1;"/><ellipse cx="164.493" cy="569.4594" fill="#222222" rx="6" ry="6" style="stroke:#222222;stroke-width:1;"/><line style="stroke:#181818;stroke-width:1;" x1="164.493" x2="164.493" y1="175.412" y2="195.412"/><polygon fill="#181818" points="160.493,185.412,164.493,195.412,168.493,185.412,164.493,189.412" style="stroke:#181818;stroke-width:1;stroke-linejoin:miter;stroke-miterlimit:10;"/><line style="stroke:#181818;stroke-width:1;" x1="164.493" x2="164.493" y1="231.7561" y2="256.2901"/><polygon fill="#181818" points="160.493,246.2901,164.493,256.2901,168.493,246.2901,164.493,250.2901" style="stroke:#181818;stroke-width:1;stroke-linejoin:miter;stroke-miterlimit:10;"/><line style="stroke:#181818;stroke-width:1;" x1="164.493" x2="164.493" y1="292.6342" y2="332.1682"/><polygon fill="#181818" points="160.493,322.1682,164.493,332.1682,168.493,322.1682,164.493,326.1682" style="stroke:#181818;stroke-width:1;stroke-linejoin:miter;stroke-miterlimit:10;"/><line style="stroke:#181818;stroke-width:1;" x1="164.493" x2="164.493" y1="368.5123" y2="388.5123"/><polygon fill="#181818" points="160.493,378.5123,164.493,388.5123,168.493,378.5123,164.493,382.5123" style="stroke:#181818;stroke-width:1;stroke-linejoin:miter;stroke-miterlimit:10;"/><line style="stroke:#181818;stroke-width:1;" x1="164.493" x2="164.493" y1="424.8564" y2="444.8564"/><polygon fill="#181818" points="160.493,434.8564,164.493,444.8564,168.493,434.8564,164.493,438.8564" style="stroke:#181818;stroke-width:1;stroke-linejoin:miter;stroke-miterlimit:10;"/><line style="stroke:#181818;stroke-width:1;" x1="164.493" x2="164.493" y1="119.0679" y2="139.0679"/><polygon fill="#181818" points="160.493,129.0679,164.493,139.0679,168.493,129.0679,164.493,133.0679" style="stroke:#181818;stroke-width:1;stroke-linejoin:miter;stroke-miterlimit:10;"/><line style="stroke:#181818;stroke-width:1;" x1="235.7936" x2="553.3271" y1="513.2005" y2="513.2005"/><polygon fill="#181818" points="549.3271,315.6003,553.3271,305.6003,557.3271,315.6003,553.3271,311.6003" style="stroke:#181818;stroke-width:1;stroke-linejoin:miter;stroke-miterlimit:10;"/><line style="stroke:#181818;stroke-width:1;" x1="553.3271" x2="553.3271" y1="107.0679" y2="513.2005"/><line style="stroke:#181818;stroke-width:1;" x1="553.3271" x2="176.493" y1="107.0679" y2="107.0679"/><polygon fill="#181818" points="186.493,103.0679,176.493,107.0679,186.493,111.0679,182.493,107.0679" style="stroke:#181818;stroke-width:1;stroke-linejoin:miter;stroke-miterlimit:10;"/><line style="stroke:#181818;stroke-width:1;" x1="164.493" x2="164.493" y1="481.2005" y2="501.2005"/><polygon fill="#181818" points="160.493,491.2005,164.493,501.2005,168.493,491.2005,164.493,495.2005" style="stroke:#181818;stroke-width:1;stroke-linejoin:miter;stroke-miterlimit:10;"/><line style="stroke:#181818;stroke-width:1;" x1="164.493" x2="164.493" y1="75.0679" y2="95.0679"/><polygon fill="#181818" points="160.493,85.0679,164.493,95.0679,168.493,85.0679,164.493,89.0679" style="stroke:#181818;stroke-width:1;stroke-linejoin:miter;stroke-miterlimit:10;"/><line style="stroke:#181818;stroke-width:1;" x1="164.493" x2="164.493" y1="525.2005" y2="558.4594"/><polygon fill="#181818" points="160.493,548.4594,164.493,558.4594,168.493,548.4594,164.493,552.4594" style="stroke:#181818;stroke-width:1;stroke-linejoin:miter;stroke-miterlimit:10;"/><?plantuml-src NP8zZjH048LpdwB26J7h5JzBC1iWyHS14WH49ENk6hiOTvTLtUtTa4Dm02G2n5x3D-4aL7jtn8Z8ilgzrr-zwinv97YFbB8Al1EPuC-tx-05EcKwSEnX-G4KirAFJJfod50nG8VksAkKw5_9A0fPCIOxCkMPAWtevQQ6771CT7RYwO1bp6ybvWyO29BPBn8f7vecPTJSA4s4kG7OFsxXvGbcXQFab9TVoqy1fmN18vZ54YydbQ-KvRhQdhJmgPfaDM5lQ0GzAO8vn44TkUIYQFPDciXjgosAgPJx8Uz1EWlZMNQcTJBPrnaltMRPVOc6a9VVof8C2D0HPzgPqvHf1vuTfahnj8NNv2HCakWSnEmdwWIF89NkuUT_2CFaW8Q1G0462HGkFACHU6ie-kKkEhOCihH-lV9P2nyBUhqV_7H7tQ4LRtKSCNOOruwkMdXpIwxSb_aFxzBJ345c0W5RHouhrlvv2vyvdQJ6LGUtsJ0EHWTACoUyVbWTt0niRslZ1kgbsCMpr6VIuJZ8YormijOvREkmi8aMkhNDo_GN?></g></svg>