<svg xmlns="http://www.w3.org/2000/svg" xmlns:xlink="http://www.w3.org/1999/xlink" contentStyleType="text/css" data-diagram-type="CLASS" height="1185px" preserveAspectRatio="none" style="width:559px;height:1185px;" version="1.1" viewBox="0 0 559 1185" width="559px" zoomAndPan="magnify"><?plantuml 1.2026.6?><defs/><g><g class="title" data-source-line="1"><text fill="#000000" font-family="sans-serif" font-size="14" font-weight="700" lengthAdjust="spacing" textLength="413.5025" x="69.3256" y="24.9659">Maestro &#8212; Modelo de dados (entidades e relacionamentos)</text></g><!--class User--><g class="entity" data-qualified-name="User" data-source-line="8" id="ent0001"><rect fill="#F1F1F1" height="102.2717" rx="2.5" ry="2.5" style="stroke:#181818;stroke-width:0.5;" width="49.4919" x="27.03" y="47.0679"/><text fill="#000000" font-family="sans-serif" font-size="14" lengthAdjust="spacing" textLength="30.6179" x="36.467" y="67.0339">User</text><line style="stroke:#181818;stroke-width:0.5;" x1="28.03" x2="75.5219" y1="76.1358" y2="76.1358"/><g data-visibility-modifier="IE_MANDATORY"><ellipse cx="38.03" cy="91.1698" fill="#000000" rx="3" ry="3" style="stroke:#000000;stroke-width:1;"/></g><text fill="#000000" font-family="sans-serif" font-size="14" lengthAdjust="spacing" textLength="12.222" x="47.03" y="95.1018">id</text><line style="stroke:#181818;stroke-width:1;" x1="28.03" x2="75.5219" y1="103.2038" y2="103.2038"/><text fill="#000000" font-family="sans-serif" font-size="14" lengthAdjust="spacing" textLength="36.0639" x="33.03" y="122.1697">email</text><text fill="#000000" font-family="sans-serif" font-size="14" lengthAdjust="spacing" textLength="37.4919" x="33.03" y="141.2376">name</text></g><!--class Company--><g class="entity" data-qualified-name="Company" data-source-line="14" id="ent0002"><rect fill="#F1F1F1" height="102.2717" rx="2.5" ry="2.5" style="stroke:#181818;stroke-width:0.5;" width="68.6638" x="161.44" y="47.0679"/><text fill="#000000" font-family="sans-serif" font-size="14" lengthAdjust="spacing" textLength="62.6638" x="164.44" y="67.0339">Company</text><line style="stroke:#181818;stroke-width:0.5;" x1="162.44" x2="229.1038" y1="76.1358" y2="76.1358"/><g data-visibility-modifier="IE_MANDATORY"><ellipse cx="172.44" cy="91.1698" fill="#000000" rx="3" ry="3" style="stroke:#000000;stroke-width:1;"/></g><text fill="#000000" font-family="sans-serif" font-size="14" lengthAdjust="spacing" textLength="12.222" x="181.44" y="95.1018">id</text><line style="stroke:#181818;stroke-width:1;" x1="162.44" x2="229.1038" y1="103.2038" y2="103.2038"/><text fill="#000000" font-family="sans-serif" font-size="14" lengthAdjust="spacing" textLength="37.4919" x="167.44" y="122.1697">name</text><text fill="#000000" font-family="sans-serif" font-size="14" lengthAdjust="spacing" textLength="27.5799" x="167.44" y="141.2376">slug</text></g><!--class Membership--><g class="entity" data-qualified-name="Membership" data-source-line="20" id="ent0003"><rect fill="#F1F1F1" height="83.2038" rx="2.5" ry="2.5" style="stroke:#181818;stroke-width:0.5;" width="89.5517" x="7" y="218.8779"/><text fill="#000000" font-family="sans-serif" font-size="14" lengthAdjust="spacing" textLength="83.5517" x="10" y="238.8439">Membership</text><line style="stroke:#181818;stroke-width:0.5;" x1="8" x2="95.5517" y1="247.9458" y2="247.9458"/><g data-visibility-modifier="IE_MANDATORY"><ellipse cx="18" cy="262.9798" fill="#000000" rx="3" ry="3" style="stroke:#000000;stroke-width:1;"/></g><text fill="#000000" font-family="sans-serif" font-size="14" lengthAdjust="spacing" textLength="12.222" x="27" y="266.9118">id</text><line style="stroke:#181818;stroke-width:1;" x1="8" x2="95.5517" y1="275.0138" y2="275.0138"/><text fill="#000000" font-family="sans-serif" font-size="14" lengthAdjust="spacing" textLength="65.4777" x="13" y="293.9797">role : Role</text></g><!--class ApiKey--><g class="entity" data-qualified-name="ApiKey" data-source-line="25" id="ent0004"><rect fill="#F1F1F1" height="159.4754" rx="2.5" ry="2.5" style="stroke:#181818;stroke-width:0.5;" width="84.0717" x="9.74" y="371.6179"/><text fill="#000000" font-family="sans-serif" font-size="14" lengthAdjust="spacing" textLength="44.8698" x="29.3409" y="391.5839">ApiKey</text><line style="stroke:#181818;stroke-width:0.5;" x1="10.74" x2="92.8117" y1="400.6858" y2="400.6858"/><g data-visibility-modifier="IE_MANDATORY"><ellipse cx="20.74" cy="415.7198" fill="#000000" rx="3" ry="3" style="stroke:#000000;stroke-width:1;"/></g><text fill="#000000" font-family="sans-serif" font-size="14" lengthAdjust="spacing" textLength="12.222" x="29.74" y="419.6518">id</text><line style="stroke:#181818;stroke-width:1;" x1="10.74" x2="92.8117" y1="427.7538" y2="427.7538"/><text fill="#000000" font-family="sans-serif" font-size="14" lengthAdjust="spacing" textLength="31.5839" x="15.74" y="446.7197">label</text><text fill="#000000" font-family="sans-serif" font-size="14" lengthAdjust="spacing" textLength="72.0717" x="15.74" y="465.7876">hashedKey</text><text fill="#000000" font-family="sans-serif" font-size="14" lengthAdjust="spacing" textLength="45.1078" x="15.74" y="484.8555">scopes</text><text fill="#000000" font-family="sans-serif" font-size="14" lengthAdjust="spacing" textLength="61.9078" x="15.74" y="503.9234">expiresAt</text><text fill="#000000" font-family="sans-serif" font-size="14" lengthAdjust="spacing" textLength="67.2417" x="15.74" y="522.9914">revokedAt</text></g><!--class Project--><g class="entity" data-qualified-name="Project" data-source-line="34" id="ent0005"><rect fill="#F1F1F1" height="102.2717" rx="2.5" ry="2.5" style="stroke:#181818;stroke-width:0.5;" width="52.0038" x="315.77" y="209.3379"/><text fill="#000000" font-family="sans-serif" font-size="14" lengthAdjust="spacing" textLength="46.0038" x="318.77" y="229.3039">Project</text><line style="stroke:#181818;stroke-width:0.5;" x1="316.77" x2="366.7738" y1="238.4058" y2="238.4058"/><g data-visibility-modifier="IE_MANDATORY"><ellipse cx="326.77" cy="253.4398" fill="#000000" rx="3" ry="3" style="stroke:#000000;stroke-width:1;"/></g><text fill="#000000" font-family="sans-serif" font-size="14" lengthAdjust="spacing" textLength="12.222" x="335.77" y="257.3718">id</text><line style="stroke:#181818;stroke-width:1;" x1="316.77" x2="366.7738" y1="265.4738" y2="265.4738"/><text fill="#000000" font-family="sans-serif" font-size="14" lengthAdjust="spacing" textLength="37.4919" x="321.77" y="284.4397">name</text><text fill="#000000" font-family="sans-serif" font-size="14" lengthAdjust="spacing" textLength="22.5119" x="321.77" y="303.5076">key</text></g><!--class Board--><g class="entity" data-qualified-name="Board" data-source-line="40" id="ent0006"><rect fill="#F1F1F1" height="83.2038" rx="2.5" ry="2.5" style="stroke:#181818;stroke-width:0.5;" width="49.4919" x="294.03" y="409.7479"/><text fill="#000000" font-family="sans-serif" font-size="14" lengthAdjust="spacing" textLength="39.8159" x="298.868" y="429.7139">Board</text><line style="stroke:#181818;stroke-width:0.5;" x1="295.03" x2="342.5219" y1="438.8158" y2="438.8158"/><g data-visibility-modifier="IE_MANDATORY"><ellipse cx="305.03" cy="453.8498" fill="#000000" rx="3" ry="3" style="stroke:#000000;stroke-width:1;"/></g><text fill="#000000" font-family="sans-serif" font-size="14" lengthAdjust="spacing" textLength="12.222" x="314.03" y="457.7818">id</text><line style="stroke:#181818;stroke-width:1;" x1="295.03" x2="342.5219" y1="465.8838" y2="465.8838"/><text fill="#000000" font-family="sans-serif" font-size="14" lengthAdjust="spacing" textLength="37.4919" x="300.03" y="484.8497">name</text></g><!--class Column--><g class="entity" data-qualified-name="Column" data-source-line="45" id="ent0007"><rect fill="#F1F1F1" height="121.3396" rx="2.5" ry="2.5" style="stroke:#181818;stroke-width:0.5;" width="67.9298" x="270.81" y="591.0879"/><text fill="#000000" font-family="sans-serif" font-size="14" lengthAdjust="spacing" textLength="51.3238" x="279.113" y="611.0539">Column</text><line style="stroke:#181818;stroke-width:0.5;" x1="271.81" x2="337.7398" y1="620.1558" y2="620.1558"/><g data-visibility-modifier="IE_MANDATORY"><ellipse cx="281.81" cy="635.1898" fill="#000000" rx="3" ry="3" style="stroke:#000000;stroke-width:1;"/></g><text fill="#000000" font-family="sans-serif" font-size="14" lengthAdjust="spacing" textLength="12.222" x="290.81" y="639.1218">id</text><line style="stroke:#181818;stroke-width:1;" x1="271.81" x2="337.7398" y1="647.2238" y2="647.2238"/><text fill="#000000" font-family="sans-serif" font-size="14" lengthAdjust="spacing" textLength="37.4919" x="276.81" y="666.1897">name</text><text fill="#000000" font-family="sans-serif" font-size="14" lengthAdjust="spacing" textLength="36.5399" x="276.81" y="685.2576">order</text><text fill="#000000" font-family="sans-serif" font-size="14" lengthAdjust="spacing" textLength="55.9298" x="276.81" y="704.3255">wipLimit</text></g><!--class Task--><g class="entity" data-qualified-name="Task" data-source-line="52" id="ent0008"><rect fill="#F1F1F1" height="197.6113" rx="2.5" ry="2.5" style="stroke:#181818;stroke-width:0.5;" width="90.4697" x="245.54" y="772.4279"/><text fill="#000000" font-family="sans-serif" font-size="14" lengthAdjust="spacing" textLength="29.8199" x="275.8649" y="792.3939">Task</text><line style="stroke:#181818;stroke-width:0.5;" x1="246.54" x2="335.0097" y1="801.4958" y2="801.4958"/><g data-visibility-modifier="IE_MANDATORY"><ellipse cx="256.54" cy="816.5298" fill="#000000" rx="3" ry="3" style="stroke:#000000;stroke-width:1;"/></g><text fill="#000000" font-family="sans-serif" font-size="14" lengthAdjust="spacing" textLength="12.222" x="265.54" y="820.4618">id</text><line style="stroke:#181818;stroke-width:1;" x1="246.54" x2="335.0097" y1="828.5638" y2="828.5638"/><text fill="#000000" font-family="sans-serif" font-size="14" lengthAdjust="spacing" textLength="52.6818" x="251.54" y="847.5297">number</text><text fill="#000000" font-family="sans-serif" font-size="14" lengthAdjust="spacing" textLength="25.2279" x="251.54" y="866.5976">title</text><text fill="#000000" font-family="sans-serif" font-size="14" lengthAdjust="spacing" textLength="58.9818" x="251.54" y="885.6655">objective</text><text fill="#000000" font-family="sans-serif" font-size="14" lengthAdjust="spacing" textLength="73.9757" x="251.54" y="904.7334">acceptance</text><text fill="#000000" font-family="sans-serif" font-size="14" lengthAdjust="spacing" textLength="48.0618" x="251.54" y="923.8014">priority</text><text fill="#000000" font-family="sans-serif" font-size="14" lengthAdjust="spacing" textLength="78.4697" x="251.54" y="942.8693">estimateMd</text><text fill="#000000" font-family="sans-serif" font-size="14" lengthAdjust="spacing" textLength="29.7639" x="251.54" y="961.9372">rank</text></g><!--class TaskDependency--><g class="entity" data-qualified-name="TaskDependency" data-source-line="63" id="ent0009"><rect fill="#F1F1F1" height="102.2717" rx="2.5" ry="2.5" style="stroke:#181818;stroke-width:0.5;" width="118.1115" x="209.72" y="1049.1079"/><text fill="#000000" font-family="sans-serif" font-size="14" lengthAdjust="spacing" textLength="112.1115" x="212.72" y="1069.0739">TaskDependency</text><line style="stroke:#181818;stroke-width:0.5;" x1="210.72" x2="326.8315" y1="1078.1758" y2="1078.1758"/><g data-visibility-modifier="IE_MANDATORY"><ellipse cx="220.72" cy="1093.2098" fill="#000000" rx="3" ry="3" style="stroke:#000000;stroke-width:1;"/></g><text fill="#000000" font-family="sans-serif" font-size="14" lengthAdjust="spacing" textLength="12.222" x="229.72" y="1097.1418">id</text><line style="stroke:#181818;stroke-width:1;" x1="210.72" x2="326.8315" y1="1105.2438" y2="1105.2438"/><text fill="#000000" font-family="sans-serif" font-size="14" lengthAdjust="spacing" textLength="61.9218" x="215.72" y="1124.2097">blockerId</text><text fill="#000000" font-family="sans-serif" font-size="14" lengthAdjust="spacing" textLength="64.7498" x="215.72" y="1143.2776">blockedId</text></g><!--class Document--><g class="entity" data-qualified-name="Document" data-source-line="69" id="ent0010"><rect fill="#F1F1F1" height="140.4075" rx="2.5" ry="2.5" style="stroke:#181818;stroke-width:0.5;" width="74.7537" x="469.4" y="1030.0379"/><text fill="#000000" font-family="sans-serif" font-size="14" lengthAdjust="spacing" textLength="68.7537" x="472.4" y="1050.0039">Document</text><line style="stroke:#181818;stroke-width:0.5;" x1="470.4" x2="543.1537" y1="1059.1058" y2="1059.1058"/><g data-visibility-modifier="IE_MANDATORY"><ellipse cx="480.4" cy="1074.1398" fill="#000000" rx="3" ry="3" style="stroke:#000000;stroke-width:1;"/></g><text fill="#000000" font-family="sans-serif" font-size="14" lengthAdjust="spacing" textLength="12.222" x="489.4" y="1078.0718">id</text><line style="stroke:#181818;stroke-width:1;" x1="470.4" x2="543.1537" y1="1086.1738" y2="1086.1738"/><text fill="#000000" font-family="sans-serif" font-size="14" lengthAdjust="spacing" textLength="25.2279" x="475.4" y="1105.1397">title</text><text fill="#000000" font-family="sans-serif" font-size="14" lengthAdjust="spacing" textLength="32.8299" x="475.4" y="1124.2076">body</text><text fill="#000000" font-family="sans-serif" font-size="14" lengthAdjust="spacing" textLength="28.6999" x="475.4" y="1143.2755">type</text><text fill="#000000" font-family="sans-serif" font-size="14" lengthAdjust="spacing" textLength="48.2298" x="475.4" y="1162.3434">version</text></g><!--class Comment--><g class="entity" data-qualified-name="Comment" data-source-line="77" id="ent0011"><rect fill="#F1F1F1" height="83.2038" rx="2.5" ry="2.5" style="stroke:#181818;stroke-width:0.5;" width="71.0997" x="363.23" y="1058.6379"/><text fill="#000000" font-family="sans-serif" font-size="14" lengthAdjust="spacing" textLength="65.0997" x="366.23" y="1078.6039">Comment</text><line style="stroke:#181818;stroke-width:0.5;" x1="364.23" x2="433.3297" y1="1087.7058" y2="1087.7058"/><g data-visibility-modifier="IE_MANDATORY"><ellipse cx="374.23" cy="1102.7398" fill="#000000" rx="3" ry="3" style="stroke:#000000;stroke-width:1;"/></g><text fill="#000000" font-family="sans-serif" font-size="14" lengthAdjust="spacing" textLength="12.222" x="383.23" y="1106.6718">id</text><line style="stroke:#181818;stroke-width:1;" x1="364.23" x2="433.3297" y1="1114.7738" y2="1114.7738"/><text fill="#000000" font-family="sans-serif" font-size="14" lengthAdjust="spacing" textLength="32.8299" x="369.23" y="1133.7397">body</text></g><!--class Label--><g class="entity" data-qualified-name="Label" data-source-line="82" id="ent0012"><rect fill="#F1F1F1" height="83.2038" rx="2.5" ry="2.5" style="stroke:#181818;stroke-width:0.5;" width="49.4919" x="125.03" y="1058.6379"/><text fill="#000000" font-family="sans-serif" font-size="14" lengthAdjust="spacing" textLength="35.3079" x="132.122" y="1078.6039">Label</text><line style="stroke:#181818;stroke-width:0.5;" x1="126.03" x2="173.5219" y1="1087.7058" y2="1087.7058"/><g data-visibility-modifier="IE_MANDATORY"><ellipse cx="136.03" cy="1102.7398" fill="#000000" rx="3" ry="3" style="stroke:#000000;stroke-width:1;"/></g><text fill="#000000" font-family="sans-serif" font-size="14" lengthAdjust="spacing" textLength="12.222" x="145.03" y="1106.6718">id</text><line style="stroke:#181818;stroke-width:1;" x1="126.03" x2="173.5219" y1="1114.7738" y2="1114.7738"/><text fill="#000000" font-family="sans-serif" font-size="14" lengthAdjust="spacing" textLength="37.4919" x="131.03" y="1133.7397">name</text></g><!--class ActivityLog--><g class="entity" data-qualified-name="ActivityLog" data-source-line="87" id="ent0013"><rect fill="#F1F1F1" height="102.2717" rx="2.5" ry="2.5" style="stroke:#181818;stroke-width:0.5;" width="77.6657" x="202.94" y="209.3379"/><text fill="#000000" font-family="sans-serif" font-size="14" lengthAdjust="spacing" textLength="71.6657" x="205.94" y="229.3039">ActivityLog</text><line style="stroke:#181818;stroke-width:0.5;" x1="203.94" x2="279.6057" y1="238.4058" y2="238.4058"/><g data-visibility-modifier="IE_MANDATORY"><ellipse cx="213.94" cy="253.4398" fill="#000000" rx="3" ry="3" style="stroke:#000000;stroke-width:1;"/></g><text fill="#000000" font-family="sans-serif" font-size="14" lengthAdjust="spacing" textLength="12.222" x="222.94" y="257.3718">id</text><line style="stroke:#181818;stroke-width:1;" x1="203.94" x2="279.6057" y1="265.4738" y2="265.4738"/><text fill="#000000" font-family="sans-serif" font-size="14" lengthAdjust="spacing" textLength="40.3618" x="208.94" y="284.4397">action</text><text fill="#000000" font-family="sans-serif" font-size="14" lengthAdjust="spacing" textLength="55.0898" x="208.94" y="303.5076">changes</text></g><!--link User to Membership--><g class="link" data-entity-1="ent0001" data-entity-2="ent0003" data-link-type="crowfoot" data-source-line="94" id="lnk14"><path codeLine="94" d="M51.78,157.5479 C51.78,179.7379 51.78,179.3879 51.78,200.4279" fill="none" id="User-Membership" style="stroke:#181818;stroke-width:1;"/><line style="stroke:#181818;stroke-width:1;" x1="47.78" x2="55.78" y1="153.5479" y2="153.5479"/><line style="stroke:#181818;stroke-width:1;" x1="47.78" x2="55.78" y1="156.5479" y2="156.5479"/><line style="stroke:#181818;stroke-width:1;" x1="51.78" x2="51.78" y1="157.5479" y2="149.5479"/><line style="stroke:#181818;stroke-width:1;" x1="51.78" x2="57.78" y1="210.4279" y2="218.4279"/><line style="stroke:#181818;stroke-width:1;" x1="51.78" x2="45.78" y1="210.4279" y2="218.4279"/><line style="stroke:#181818;stroke-width:1;" x1="51.78" x2="51.78" y1="210.4279" y2="218.4279"/><ellipse cx="51.78" cy="204.4279" fill="none" rx="4" ry="4" style="stroke:#181818;stroke-width:1;"/></g><!--link Company to Membership--><g class="link" data-entity-1="ent0002" data-entity-2="ent0003" data-link-type="crowfoot" data-source-line="95" id="lnk15"><path codeLine="95" d="M164.71,157.5379 C164.71,205.0679 164.71,260.4479 164.71,260.4479 C164.71,260.4479 146.23,260.4479 114.74,260.4479" fill="none" id="Company-Membership" style="stroke:#181818;stroke-width:1;"/><line style="stroke:#181818;stroke-width:1;" x1="160.71" x2="168.71" y1="153.5379" y2="153.5379"/><line style="stroke:#181818;stroke-width:1;" x1="160.71" x2="168.71" y1="156.5379" y2="156.5379"/><line style="stroke:#181818;stroke-width:1;" x1="164.71" x2="164.71" y1="157.5379" y2="149.5379"/><line style="stroke:#181818;stroke-width:1;" x1="104.74" x2="96.74" y1="260.4479" y2="266.4479"/><line style="stroke:#181818;stroke-width:1;" x1="104.74" x2="96.74" y1="260.4479" y2="254.4479"/><line style="stroke:#181818;stroke-width:1;" x1="104.74" x2="96.74" y1="260.4479" y2="260.4479"/><ellipse cx="110.74" cy="260.4479" fill="none" rx="4" ry="4" style="stroke:#181818;stroke-width:1;"/></g><!--link Membership to ApiKey--><g class="link" data-entity-1="ent0003" data-entity-2="ent0004" data-link-type="crowfoot" data-source-line="96" id="lnk16"><path codeLine="96" d="M51.78,310.3679 C51.78,330.5579 51.78,329.4779 51.78,353.1179" fill="none" id="Membership-ApiKey" style="stroke:#181818;stroke-width:1;"/><line style="stroke:#181818;stroke-width:1;" x1="47.78" x2="55.78" y1="306.3679" y2="306.3679"/><line style="stroke:#181818;stroke-width:1;" x1="47.78" x2="55.78" y1="309.3679" y2="309.3679"/><line style="stroke:#181818;stroke-width:1;" x1="51.78" x2="51.78" y1="310.3679" y2="302.3679"/><line style="stroke:#181818;stroke-width:1;" x1="51.78" x2="57.78" y1="363.1179" y2="371.1179"/><line style="stroke:#181818;stroke-width:1;" x1="51.78" x2="45.78" y1="363.1179" y2="371.1179"/><line style="stroke:#181818;stroke-width:1;" x1="51.78" x2="51.78" y1="363.1179" y2="371.1179"/><ellipse cx="51.78" cy="357.1179" fill="none" rx="4" ry="4" style="stroke:#181818;stroke-width:1;"/></g><!--link Company to Project--><g class="link" data-entity-1="ent0002" data-entity-2="ent0005" data-link-type="crowfoot" data-source-line="97" id="lnk17"><path codeLine="97" d="M238.38,98.4479 C281.55,98.4479 341.78,98.4479 341.78,98.4479 C341.78,98.4479 341.78,143.7379 341.78,191.2079" fill="none" id="Company-Project" style="stroke:#181818;stroke-width:1;"/><line style="stroke:#181818;stroke-width:1;" x1="234.38" x2="234.38" y1="102.4479" y2="94.4479"/><line style="stroke:#181818;stroke-width:1;" x1="237.38" x2="237.38" y1="102.4479" y2="94.4479"/><line style="stroke:#181818;stroke-width:1;" x1="238.38" x2="230.38" y1="98.4479" y2="98.4479"/><line style="stroke:#181818;stroke-width:1;" x1="341.78" x2="347.78" y1="201.2079" y2="209.2079"/><line style="stroke:#181818;stroke-width:1;" x1="341.78" x2="335.78" y1="201.2079" y2="209.2079"/><line style="stroke:#181818;stroke-width:1;" x1="341.78" x2="341.78" y1="201.2079" y2="209.2079"/><ellipse cx="341.78" cy="195.2079" fill="none" rx="4" ry="4" style="stroke:#181818;stroke-width:1;"/></g><!--link Project to Board--><g class="link" data-entity-1="ent0005" data-entity-2="ent0006" data-link-type="crowfoot" data-source-line="98" id="lnk18"><path codeLine="98" d="M329.65,319.8779 C329.65,350.4679 329.65,362.7779 329.65,391.5079" fill="none" id="Project-Board" style="stroke:#181818;stroke-width:1;"/><line style="stroke:#181818;stroke-width:1;" x1="325.65" x2="333.65" y1="315.8779" y2="315.8779"/><line style="stroke:#181818;stroke-width:1;" x1="325.65" x2="333.65" y1="318.8779" y2="318.8779"/><line style="stroke:#181818;stroke-width:1;" x1="329.65" x2="329.65" y1="319.8779" y2="311.8779"/><line style="stroke:#181818;stroke-width:1;" x1="329.65" x2="335.65" y1="401.5079" y2="409.5079"/><line style="stroke:#181818;stroke-width:1;" x1="329.65" x2="323.65" y1="401.5079" y2="409.5079"/><line style="stroke:#181818;stroke-width:1;" x1="329.65" x2="329.65" y1="401.5079" y2="409.5079"/><ellipse cx="329.65" cy="395.5079" fill="none" rx="4" ry="4" style="stroke:#181818;stroke-width:1;"/></g><!--link Board to Column--><g class="link" data-entity-1="ent0006" data-entity-2="ent0007" data-link-type="crowfoot" data-source-line="99" id="lnk19"><path codeLine="99" d="M316.39,501.3679 C316.39,529.5979 316.39,541.2679 316.39,572.7879" fill="none" id="Board-Column" style="stroke:#181818;stroke-width:1;"/><line style="stroke:#181818;stroke-width:1;" x1="312.39" x2="320.39" y1="497.3679" y2="497.3679"/><line style="stroke:#181818;stroke-width:1;" x1="312.39" x2="320.39" y1="500.3679" y2="500.3679"/><line style="stroke:#181818;stroke-width:1;" x1="316.39" x2="316.39" y1="501.3679" y2="493.3679"/><line style="stroke:#181818;stroke-width:1;" x1="316.39" x2="322.39" y1="582.7879" y2="590.7879"/><line style="stroke:#181818;stroke-width:1;" x1="316.39" x2="310.39" y1="582.7879" y2="590.7879"/><line style="stroke:#181818;stroke-width:1;" x1="316.39" x2="316.39" y1="582.7879" y2="590.7879"/><ellipse cx="316.39" cy="576.7879" fill="none" rx="4" ry="4" style="stroke:#181818;stroke-width:1;"/></g><!--link Column to Task--><g class="link" data-entity-1="ent0007" data-entity-2="ent0008" data-link-type="crowfoot" data-source-line="100" id="lnk20"><path codeLine="100" d="M292.54,720.8979 C292.54,739.2879 292.54,733.9579 292.54,754.1479" fill="none" id="Column-Task" style="stroke:#181818;stroke-width:1;"/><line style="stroke:#181818;stroke-width:1;" x1="288.54" x2="296.54" y1="716.8979" y2="716.8979"/><line style="stroke:#181818;stroke-width:1;" x1="288.54" x2="296.54" y1="719.8979" y2="719.8979"/><line style="stroke:#181818;stroke-width:1;" x1="292.54" x2="292.54" y1="720.8979" y2="712.8979"/><line style="stroke:#181818;stroke-width:1;" x1="292.54" x2="298.54" y1="764.1479" y2="772.1479"/><line style="stroke:#181818;stroke-width:1;" x1="292.54" x2="286.54" y1="764.1479" y2="772.1479"/><line style="stroke:#181818;stroke-width:1;" x1="292.54" x2="292.54" y1="764.1479" y2="772.1479"/><ellipse cx="292.54" cy="758.1479" fill="none" rx="4" ry="4" style="stroke:#181818;stroke-width:1;"/></g><!--link Task to Task--><g class="link" data-entity-1="ent0008" data-entity-2="ent0008" data-link-type="crowfoot" data-source-line="101" id="lnk21"><path codeLine="101" d="M314.28,763.9979 C314.28,746.8679 314.28,742.4479 314.28,742.4479 C314.28,742.4479 350.09,742.4479 350.09,742.4479 C350.09,742.4479 350.09,1000.4479 350.09,1000.4479 C350.09,1000.4479 333.97,1000.4479 333.97,1000.4479 C333.97,1000.4479 333.97,1005.8279 333.97,988.4779" fill="none" id="Task-Task" style="stroke:#181818;stroke-width:1;"/><line style="stroke:#181818;stroke-width:1;" x1="318.28" x2="310.28" y1="767.9979" y2="767.9979"/><line style="stroke:#181818;stroke-width:1;" x1="318.28" x2="310.28" y1="764.9979" y2="764.9979"/><line style="stroke:#181818;stroke-width:1;" x1="314.28" x2="314.28" y1="763.9979" y2="771.9979"/><line style="stroke:#181818;stroke-width:1;" x1="333.97" x2="327.97" y1="978.4779" y2="970.4779"/><line style="stroke:#181818;stroke-width:1;" x1="333.97" x2="339.97" y1="978.4779" y2="970.4779"/><line style="stroke:#181818;stroke-width:1;" x1="333.97" x2="333.97" y1="978.4779" y2="970.4779"/><ellipse cx="333.97" cy="984.4779" fill="none" rx="4" ry="4" style="stroke:#181818;stroke-width:1;"/><text fill="#000000" font-family="sans-serif" font-size="13" lengthAdjust="spacing" textLength="64.935" x="356.09" y="852.7149">subtarefas</text></g><!--link Task to TaskDependency--><g class="link" data-entity-1="ent0008" data-entity-2="ent0009" data-link-type="crowfoot" data-source-line="102" id="lnk22"><path codeLine="102" d="M272.97,978.3479 C272.97,1005.4279 272.97,1007.6779 272.97,1030.8879" fill="none" id="Task-TaskDependency" style="stroke:#181818;stroke-width:1;"/><line style="stroke:#181818;stroke-width:1;" x1="268.97" x2="276.97" y1="974.3479" y2="974.3479"/><line style="stroke:#181818;stroke-width:1;" x1="268.97" x2="276.97" y1="977.3479" y2="977.3479"/><line style="stroke:#181818;stroke-width:1;" x1="272.97" x2="272.97" y1="978.3479" y2="970.3479"/><line style="stroke:#181818;stroke-width:1;" x1="272.97" x2="278.97" y1="1040.8879" y2="1048.8879"/><line style="stroke:#181818;stroke-width:1;" x1="272.97" x2="266.97" y1="1040.8879" y2="1048.8879"/><line style="stroke:#181818;stroke-width:1;" x1="272.97" x2="272.97" y1="1040.8879" y2="1048.8879"/><ellipse cx="272.97" cy="1034.8879" fill="none" rx="4" ry="4" style="stroke:#181818;stroke-width:1;"/><text fill="#000000" font-family="sans-serif" font-size="13" lengthAdjust="spacing" textLength="45.097" x="226.97" y="1005.5149">blocker</text></g><!--link Task to TaskDependency--><g class="link" data-entity-1="ent0008" data-entity-2="ent0009" data-link-type="crowfoot" data-source-line="103" id="lnk23"><path codeLine="103" d="M300.4,978.3479 C300.4,1005.4279 300.4,1007.6779 300.4,1030.8879" fill="none" id="Task-TaskDependency-1" style="stroke:#181818;stroke-width:1;"/><line style="stroke:#181818;stroke-width:1;" x1="296.4" x2="304.4" y1="974.3479" y2="974.3479"/><line style="stroke:#181818;stroke-width:1;" x1="296.4" x2="304.4" y1="977.3479" y2="977.3479"/><line style="stroke:#181818;stroke-width:1;" x1="300.4" x2="300.4" y1="978.3479" y2="970.3479"/><line style="stroke:#181818;stroke-width:1;" x1="300.4" x2="306.4" y1="1040.8879" y2="1048.8879"/><line style="stroke:#181818;stroke-width:1;" x1="300.4" x2="294.4" y1="1040.8879" y2="1048.8879"/><line style="stroke:#181818;stroke-width:1;" x1="300.4" x2="300.4" y1="1040.8879" y2="1048.8879"/><ellipse cx="300.4" cy="1034.8879" fill="none" rx="4" ry="4" style="stroke:#181818;stroke-width:1;"/><text fill="#000000" font-family="sans-serif" font-size="13" lengthAdjust="spacing" textLength="47.723" x="252.4" y="1024.5149">blocked</text></g><!--link Project to Document--><g class="link" data-entity-1="ent0005" data-entity-2="ent0010" data-link-type="crowfoot" data-source-line="104" id="lnk24"><path codeLine="104" d="M356.66,319.9879 C356.66,493.2979 356.66,1036.4479 356.66,1036.4479 C356.66,1036.4479 406.82,1036.4479 451.28,1036.4479" fill="none" id="Project-Document" style="stroke:#181818;stroke-width:1;"/><line style="stroke:#181818;stroke-width:1;" x1="352.66" x2="360.66" y1="315.9879" y2="315.9879"/><line style="stroke:#181818;stroke-width:1;" x1="352.66" x2="360.66" y1="318.9879" y2="318.9879"/><line style="stroke:#181818;stroke-width:1;" x1="356.66" x2="356.66" y1="319.9879" y2="311.9879"/><line style="stroke:#181818;stroke-width:1;" x1="461.28" x2="469.28" y1="1036.4479" y2="1030.4479"/><line style="stroke:#181818;stroke-width:1;" x1="461.28" x2="469.28" y1="1036.4479" y2="1042.4479"/><line style="stroke:#181818;stroke-width:1;" x1="461.28" x2="469.28" y1="1036.4479" y2="1036.4479"/><ellipse cx="455.28" cy="1036.4479" fill="none" rx="4" ry="4" style="stroke:#181818;stroke-width:1;"/></g><!--link Task to Document--><g class="link" data-entity-1="ent0008" data-entity-2="ent0010" data-link-type="crowfoot" data-source-line="105" id="lnk25"><path codeLine="105" d="M331.92,978.3379 C331.92,1016.1979 331.92,1042.4479 331.92,1042.4479 C331.92,1042.4479 399.89,1042.4479 451.27,1042.4479" fill="none" id="Task-Document" style="stroke:#181818;stroke-width:1;"/><line style="stroke:#181818;stroke-width:1;" x1="327.92" x2="335.92" y1="974.3379" y2="974.3379"/><line style="stroke:#181818;stroke-width:1;" x1="327.92" x2="335.92" y1="977.3379" y2="977.3379"/><line style="stroke:#181818;stroke-width:1;" x1="331.92" x2="331.92" y1="978.3379" y2="970.3379"/><line style="stroke:#181818;stroke-width:1;" x1="461.27" x2="469.27" y1="1042.4479" y2="1036.4479"/><line style="stroke:#181818;stroke-width:1;" x1="461.27" x2="469.27" y1="1042.4479" y2="1048.4479"/><line style="stroke:#181818;stroke-width:1;" x1="461.27" x2="469.27" y1="1042.4479" y2="1042.4479"/><ellipse cx="455.27" cy="1042.4479" fill="none" rx="4" ry="4" style="stroke:#181818;stroke-width:1;"/></g><!--link Task to Comment--><g class="link" data-entity-1="ent0008" data-entity-2="ent0011" data-link-type="crowfoot" data-source-line="106" id="lnk26"><path codeLine="106" d="M329.88,978.4379 C329.88,1040.3879 329.88,1100.4479 329.88,1100.4479 C329.88,1100.4479 328.3,1100.4479 345.12,1100.4479" fill="none" id="Task-Comment" style="stroke:#181818;stroke-width:1;"/><line style="stroke:#181818;stroke-width:1;" x1="325.88" x2="333.88" y1="974.4379" y2="974.4379"/><line style="stroke:#181818;stroke-width:1;" x1="325.88" x2="333.88" y1="977.4379" y2="977.4379"/><line style="stroke:#181818;stroke-width:1;" x1="329.88" x2="329.88" y1="978.4379" y2="970.4379"/><line style="stroke:#181818;stroke-width:1;" x1="355.12" x2="363.12" y1="1100.4479" y2="1094.4479"/><line style="stroke:#181818;stroke-width:1;" x1="355.12" x2="363.12" y1="1100.4479" y2="1106.4479"/><line style="stroke:#181818;stroke-width:1;" x1="355.12" x2="363.12" y1="1100.4479" y2="1100.4479"/><ellipse cx="349.12" cy="1100.4479" fill="none" rx="4" ry="4" style="stroke:#181818;stroke-width:1;"/></g><!--link Company to Label--><g class="link" data-entity-1="ent0002" data-entity-2="ent0012" data-link-type="crowfoot" data-source-line="107" id="lnk27"><path codeLine="107" d="M167.98,157.6179 C167.98,333.0279 167.98,879.8879 167.98,1040.2079" fill="none" id="Company-Label" style="stroke:#181818;stroke-width:1;"/><line style="stroke:#181818;stroke-width:1;" x1="163.98" x2="171.98" y1="153.6179" y2="153.6179"/><line style="stroke:#181818;stroke-width:1;" x1="163.98" x2="171.98" y1="156.6179" y2="156.6179"/><line style="stroke:#181818;stroke-width:1;" x1="167.98" x2="167.98" y1="157.6179" y2="149.6179"/><line style="stroke:#181818;stroke-width:1;" x1="167.98" x2="173.98" y1="1050.2079" y2="1058.2079"/><line style="stroke:#181818;stroke-width:1;" x1="167.98" x2="161.98" y1="1050.2079" y2="1058.2079"/><line style="stroke:#181818;stroke-width:1;" x1="167.98" x2="167.98" y1="1050.2079" y2="1058.2079"/><ellipse cx="167.98" cy="1044.2079" fill="none" rx="4" ry="4" style="stroke:#181818;stroke-width:1;"/></g><!--link Task to Label--><g class="link" data-entity-1="ent0008" data-entity-2="ent0012" data-link-type="crowfoot" data-source-line="108" id="lnk28"><path codeLine="108" d="M227.25,871.4479 C193.47,871.4479 171.25,871.4479 171.25,871.4479 C171.25,871.4479 171.25,974.2279 171.25,1040.2779" fill="none" id="Task-Label" style="stroke:#181818;stroke-width:1;"/><line style="stroke:#181818;stroke-width:1;" x1="237.25" x2="245.25" y1="871.4479" y2="865.4479"/><line style="stroke:#181818;stroke-width:1;" x1="237.25" x2="245.25" y1="871.4479" y2="877.4479"/><line style="stroke:#181818;stroke-width:1;" x1="237.25" x2="245.25" y1="871.4479" y2="871.4479"/><ellipse cx="231.25" cy="871.4479" fill="none" rx="4" ry="4" style="stroke:#181818;stroke-width:1;"/><line style="stroke:#181818;stroke-width:1;" x1="171.25" x2="177.25" y1="1050.2779" y2="1058.2779"/><line style="stroke:#181818;stroke-width:1;" x1="171.25" x2="165.25" y1="1050.2779" y2="1058.2779"/><line style="stroke:#181818;stroke-width:1;" x1="171.25" x2="171.25" y1="1050.2779" y2="1058.2779"/><ellipse cx="171.25" cy="1044.2779" fill="none" rx="4" ry="4" style="stroke:#181818;stroke-width:1;"/></g><!--link Company to ActivityLog--><g class="link" data-entity-1="ent0002" data-entity-2="ent0013" data-link-type="crowfoot" data-source-line="109" id="lnk29"><path codeLine="109" d="M216.53,157.5479 C216.53,176.4879 216.53,171.9479 216.53,190.9079" fill="none" id="Company-ActivityLog" style="stroke:#181818;stroke-width:1;"/><line style="stroke:#181818;stroke-width:1;" x1="212.53" x2="220.53" y1="153.5479" y2="153.5479"/><line style="stroke:#181818;stroke-width:1;" x1="212.53" x2="220.53" y1="156.5479" y2="156.5479"/><line style="stroke:#181818;stroke-width:1;" x1="216.53" x2="216.53" y1="157.5479" y2="149.5479"/><line style="stroke:#181818;stroke-width:1;" x1="216.53" x2="222.53" y1="200.9079" y2="208.9079"/><line style="stroke:#181818;stroke-width:1;" x1="216.53" x2="210.53" y1="200.9079" y2="208.9079"/><line style="stroke:#181818;stroke-width:1;" x1="216.53" x2="216.53" y1="200.9079" y2="208.9079"/><ellipse cx="216.53" cy="194.9079" fill="none" rx="4" ry="4" style="stroke:#181818;stroke-width:1;"/></g><?plantuml-src ZLDHRjim3FtNAVYv3iW5-fUs630i6OPXEm0jCR5cMJGaELtG1jWXTiATP9GJEywKeCj7H9FlKS_aSxB94QoHOWeCVtxzXZKRSWo6mA3X2E_89oiXHI08v51RzjXAbkETYetr7GPieKBTR0FttZooum0fe8zI4k0C5Mjf-cpz5ZRe8iqgXZROk_I1VVeixI4AVH4fs8sghQZHDcWt9pZhAUqx0WwfPgMophI7xyA15mNm7goHOx6GFshHEZcpS7KOeO_STkZt1Nf00KJNRy_WDRKLXLZRhi07bXdUmrSvplXbPpzHsTjXHLb9ZR4c8uXyaUQEOfRvixE1uZBbfhJZXep4KyilWN-GJhVqDj9imZum1dCTENj_rxV-LZiEXeASpxPRsTRET7p3s9IiFiz7WfGjbVbL5cjtEKQjgKleTNxeWkKWVV8BnsHRJBJERSGmpUKbJzIHD-HrESVAiMueV3HJR2IUs4-i--pHWZUggzXa0Tb0SknaisBh2sjSfG-q2RNAotnZoCiy0mbMl2sGA3Mv5K3NwBTYWODIWt_px_LriU2NcU_KwDShfPaxJyMZ_mhEoKDgzDAO7_oYZguvNtvqY3ePPKhdtQZ11N2PbAyWzbMIhtw3yIfYjjBxSOd_2pI5wd7DHOURXTDYYxaCgpoZ3ppB_ekThVGl?></g></svg>